<svg xmlns="http://www.w3.org/2000/svg" width="24" height="24" fill="none"><path fill="#000" stroke="#000" stroke-width=".2" d="M22.521 16.433v-.357c0-.956-.314-1.821-.82-2.446V6.707c0-.942-.661-1.707-1.476-1.707H3.485c-.814 0-1.475.765-1.475 1.708v6.92c-.506.624-.82 1.493-.82 2.445v.357c-.423.024-.761.462-.761.993v2.78c0 .548.357.992.798.992h1.017v.799c0 .29.19.527.424.527H3.68c.234 0 .425-.237.425-.527v-.799h15.5v.799c0 .29.191.527.425.527h1.01c.235 0 .426-.237.426-.527v-.799h1.016c.44 0 .799-.444.799-.992v-2.78c.002-.528-.337-.966-.759-.99ZM2.468 6.707c0-.628.457-1.14 1.019-1.14h16.742c.562 0 1.019.512 1.019 1.14v6.462a2.39 2.39 0 0 0-1.503-.552h-.758c-.11-.912-.75-1.617-1.52-1.617H13.72c-.77 0-1.406.702-1.52 1.617h-.688c-.11-.912-.75-1.617-1.519-1.617H6.247c-.769 0-1.406.702-1.52 1.617H3.97c-.554 0-1.07.204-1.503.551V6.707Zm16.051 5.914h-5.853c.105-.598.538-1.05 1.054-1.05h3.745c.517 0 .95.452 1.054 1.05Zm-7.471 0H5.193c.105-.598.538-1.05 1.054-1.05h3.746c.516 0 .949.452 1.054 1.05Zm-9.4 3.455c0-1.59 1.043-2.887 2.323-2.887h15.772c1.28 0 2.323 1.296 2.323 2.887v.357H1.647v-.357Zm2 5.88h-.946v-.758h.946v.758Zm17.364 0h-.947v-.758h.947v.758Zm1.815-1.75c0 .233-.154.424-.342.424H1.228c-.189 0-.342-.191-.342-.425v-2.78c0-.234.153-.424.342-.424h21.256c.188 0 .341.19.341.424v2.78Z"/></svg>