<svg xmlns="http://www.w3.org/2000/svg" width="24" height="24" fill="none"><g clip-path="url(#a)"><path fill="#000" d="M22.942 12.976h-2.53v-.23a.38.38 0 0 0-.377-.384h-4.542a.38.38 0 0 0-.377.385v.23H2.114V3.771c0-1.182.684-2.258 1.742-2.742 1.42-.65 3.1-.056 3.82 1.35l.469.915c-1.282.274-2.249 1.433-2.249 2.82a.38.38 0 0 0 .377.383h4.898a.38.38 0 0 0 .377-.384c0-1.504-1.138-2.741-2.58-2.868l-.626-1.22C7.437.26 5.33-.487 3.547.33 2.217.937 1.36 2.289 1.36 3.77v9.205h-.305c-.58 0-1.056.482-1.056 1.076 0 .595.475 1.077 1.056 1.077h.302v2.01A5.246 5.246 0 0 0 4.57 21.99a5.135 5.135 0 0 0-1.908 1.367.39.39 0 0 0 .032.543c.071.066.16.098.25.098a.378.378 0 0 0 .28-.127 4.354 4.354 0 0 1 3.273-1.495h11.005c1.248 0 2.44.546 3.271 1.495.14.159.377.17.533.031a.391.391 0 0 0 .031-.543 5.164 5.164 0 0 0-1.908-1.367 5.24 5.24 0 0 0 3.211-4.852v-2.013h.305c.583 0 1.056-.481 1.056-1.076a1.07 1.07 0 0 0-1.058-1.076ZM10.76 5.73H6.684c.177-.983 1.024-1.729 2.037-1.729s1.862.746 2.04 1.73Zm5.109 10.785h3.791v.995h-3.79v-.995Zm3.789-3.387v2.619h-3.792v-2.62h3.792Zm-18.905.924c0-.171.136-.31.305-.31h14.057v.618H1.056a.306.306 0 0 1-.302-.308Zm21.131 3.087c0 2.462-1.965 4.467-4.384 4.467H6.496c-2.416 0-4.384-2.003-4.384-4.468v-2.01h13.002v2.766a.38.38 0 0 0 .377.384h4.543a.38.38 0 0 0 .376-.384v-2.766h1.474v2.01h.002Zm1.056-2.778h-2.529v-.62h2.53c.167 0 .302.14.302.311a.304.304 0 0 1-.303.309Z"/></g><defs><clipPath id="a"><path fill="#fff" d="M0 0h24v24H0z"/></clipPath></defs></svg>