<svg width="21" height="21" viewBox="0 0 21 21" fill="none" xmlns="http://www.w3.org/2000/svg">
<path d="M18.3745 14.0871V16.6557C18.3754 16.8941 18.3265 17.1301 18.2308 17.3486C18.1351 17.5671 17.9947 17.7632 17.8186 17.9244C17.6426 18.0856 17.4347 18.2084 17.2084 18.2847C16.982 18.3611 16.7422 18.3895 16.5043 18.3681C13.8644 18.0818 11.3286 17.1815 9.1006 15.7395C7.02777 14.425 5.27037 12.6711 3.95321 10.6023C2.50334 8.36869 1.60106 5.8256 1.31946 3.17909C1.29802 2.94233 1.32622 2.7037 1.40225 2.4784C1.47828 2.25311 1.60049 2.04608 1.76108 1.8705C1.92167 1.69492 2.11714 1.55464 2.33503 1.45858C2.55293 1.36253 2.78848 1.31281 3.02668 1.31258H5.60037C6.01672 1.30849 6.42035 1.45564 6.73603 1.72658C7.05171 1.99753 7.2579 2.37379 7.31617 2.78524C7.4248 3.60725 7.62626 4.41436 7.9167 5.19116C8.03212 5.49761 8.0571 5.83067 7.98868 6.15086C7.92026 6.47104 7.7613 6.76495 7.53064 6.99774L6.44111 8.08511C7.66238 10.2286 9.44071 12.0035 11.5885 13.2223L12.678 12.1349C12.9113 11.9047 13.2058 11.7461 13.5266 11.6778C13.8474 11.6095 14.1811 11.6344 14.4882 11.7496C15.2665 12.0395 16.0752 12.2406 16.8989 12.349C17.3156 12.4077 17.6962 12.6171 17.9683 12.9376C18.2404 13.2581 18.3849 13.6672 18.3745 14.0871Z" stroke="inherit" stroke-width="1.33333" stroke-linecap="round" stroke-linejoin="round"/>
</svg>
