<svg width="24" height="24" viewBox="0 0 24 24" fill="none" xmlns="http://www.w3.org/2000/svg">
<path d="M22.5215 16.4332V16.0757C22.5215 15.1202 22.2069 14.2548 21.7015 13.63L21.7013 6.70737C21.7013 5.76511 21.0399 5 20.2253 5L3.48553 5.00023C2.67082 5.00023 2.00955 5.76535 2.00955 6.7076V13.6273C1.50413 14.2521 1.1896 15.1207 1.1896 16.073V16.4305C0.767434 16.4538 0.428711 16.8915 0.428711 17.4228V20.2028C0.428711 20.7507 0.786361 21.1951 1.22729 21.1951H2.24361V21.9936C2.24361 22.2842 2.43453 22.5215 2.6684 22.5215H3.67929C3.91316 22.5215 4.10408 22.2842 4.10408 21.9936V21.1951H19.6042V21.9936C19.6042 22.2842 19.7951 22.5215 20.029 22.5215H21.0399C21.2738 22.5215 21.4647 22.2842 21.4647 21.9936V21.1951H22.481C22.9219 21.1951 23.2796 20.7507 23.2796 20.2028V17.4228C23.2822 16.8947 22.9435 16.457 22.5213 16.4335L22.5215 16.4332ZM2.4669 6.70702C2.4669 6.07895 2.92395 5.56758 3.48586 5.56758H20.2281C20.79 5.56758 21.247 6.07868 21.247 6.70702V13.1685C20.8142 12.821 20.2978 12.6173 19.744 12.6173H18.9858C18.8755 11.7051 18.2356 11.0001 17.4666 11.0001H13.7189C12.9499 11.0001 12.3126 11.7019 12.1997 12.6173H11.5114C11.4011 11.7051 10.7612 11.0001 9.99228 11.0001H6.24697C5.47802 11.0001 4.84075 11.7019 4.72783 12.6173H3.96958C3.41576 12.6173 2.89944 12.821 2.46657 13.1685L2.4669 6.70702ZM18.5182 12.6208H12.6651C12.7699 12.0228 13.2028 11.5716 13.7191 11.5716H17.4644C17.9805 11.5719 18.4136 12.0228 18.5184 12.6208H18.5182ZM11.0466 12.6208H5.1935C5.29834 12.0228 5.73118 11.5716 6.2475 11.5716H9.99281C10.5091 11.5719 10.942 12.0228 11.0468 12.6208H11.0466ZM1.64686 16.0757C1.64686 14.4853 2.69002 13.189 3.96982 13.189H19.7417C21.0215 13.189 22.0647 14.4853 22.0647 16.0757V16.4332L1.64715 16.4329L1.64686 16.0757ZM3.64723 21.956H2.70087V21.1976H3.64723V21.956ZM21.0107 21.956H20.0643V21.1976H21.0107V21.956ZM22.8256 20.2052C22.8256 20.4392 22.6724 20.6296 22.4841 20.6296H19.6071L4.10457 20.6294H1.22761C1.03931 20.6294 0.886086 20.439 0.886086 20.205V17.4251C0.886086 17.1911 1.03931 17.0007 1.22761 17.0007H22.4839C22.6722 17.0007 22.8254 17.1911 22.8254 17.4251L22.8256 20.2052Z" fill="black" stroke="black" stroke-width="0.2"/>
</svg>
