<svg width="59" height="60" viewBox="0 0 59 60" fill="none" xmlns="http://www.w3.org/2000/svg">
<path d="M25.2557 32.6096H21.5439V50.0386H25.2557V32.6096Z" fill="#CFA672"/>
<path d="M49.5433 13.1634V9.53241H9.03711V13.1634H21.544V20.4255H25.2557V13.1634H29.9357V50.0386H31.5495H33.6475H49.5433V46.3269H33.6475V13.1634H49.5433Z" fill="#CFA672"/>
<path d="M23.4803 28.3331C24.4607 28.3331 25.2554 27.5384 25.2554 26.558C25.2554 25.5776 24.4607 24.7828 23.4803 24.7828C22.4999 24.7828 21.7051 25.5776 21.7051 26.558C21.7051 27.5384 22.4999 28.3331 23.4803 28.3331Z" fill="#CFA672"/>
<path d="M58.5 59.0758H0V0.495117H58.5V59.0758ZM3.63103 55.4448H54.869V4.12615H3.63103V55.4448Z" fill="#CFA672"/>
</svg>
